<svg width="18" height="18" viewBox="0 0 18 18" fill="none" xmlns="http://www.w3.org/2000/svg">
<g clip-path="url(#clip0_752_2)">
<path d="M4.50595 16.8745C4.50575 16.7268 4.53481 16.5804 4.59145 16.444C4.64809 16.3075 4.73119 16.1837 4.83595 16.0795L10.5899 10.3247C10.7641 10.1506 10.9023 9.9439 10.9965 9.71639C11.0908 9.48887 11.1393 9.24501 11.1393 8.99874C11.1393 8.75247 11.0908 8.50861 10.9965 8.28109C10.9023 8.05358 10.7641 7.84686 10.5899 7.67274L4.84345 1.92699C4.736 1.82321 4.65029 1.69907 4.59133 1.56182C4.53237 1.42457 4.50134 1.27694 4.50004 1.12757C4.49874 0.97819 4.52721 0.830049 4.58377 0.691791C4.64034 0.553533 4.72388 0.427925 4.8295 0.322296C4.93513 0.216666 5.06074 0.133131 5.199 0.0765653C5.33726 0.0199993 5.4854 -0.00846491 5.63478 -0.00716686C5.78415 -0.00586882 5.93177 0.0251654 6.06903 0.0841255C6.20628 0.143086 6.33042 0.22879 6.4342 0.336239L12.1807 6.08199C12.9533 6.85606 13.3873 7.90506 13.3873 8.99874C13.3873 10.0924 12.9533 11.1414 12.1807 11.9155L6.4267 17.6702C6.26936 17.8277 6.06886 17.9349 5.85057 17.9784C5.63227 18.0218 5.40599 17.9995 5.20036 17.9143C4.99473 17.8291 4.81899 17.6849 4.69538 17.4998C4.57177 17.3147 4.50585 17.0971 4.50595 16.8745Z" fill="black"/>
</g>
<defs>
<clipPath id="clip0_752_2">
<rect width="18" height="18" fill="white" transform="matrix(0 -1 1 0 0 18)"/>
</clipPath>
</defs>
</svg>
