<svg width="30" height="30" viewBox="0 0 30 30" fill="none" xmlns="http://www.w3.org/2000/svg">
<g clip-path="url(#clip0_322_2008)">
<path d="M23.75 7.5H16.25C15.1085 7.50418 13.9901 7.82171 13.0167 8.41796C12.0433 9.0142 11.2523 9.86628 10.73 10.8813C9.9805 10.3122 9.06602 10.0029 8.125 10C6.96468 10 5.85188 10.4609 5.03141 11.2814C4.21094 12.1019 3.75 13.2147 3.75 14.375C3.75366 15.025 3.90362 15.6659 4.18875 16.25H2.5V3.75C2.5 3.41848 2.3683 3.10054 2.13388 2.86612C1.89946 2.6317 1.58152 2.5 1.25 2.5C0.918479 2.5 0.600537 2.6317 0.366117 2.86612C0.131696 3.10054 0 3.41848 0 3.75L0 26.25C0 26.5815 0.131696 26.8995 0.366117 27.1339C0.600537 27.3683 0.918479 27.5 1.25 27.5C1.58152 27.5 1.89946 27.3683 2.13388 27.1339C2.3683 26.8995 2.5 26.5815 2.5 26.25V23.75H27.5V26.25C27.5 26.5815 27.6317 26.8995 27.8661 27.1339C28.1005 27.3683 28.4185 27.5 28.75 27.5C29.0815 27.5 29.3995 27.3683 29.6339 27.1339C29.8683 26.8995 30 26.5815 30 26.25V13.75C29.998 12.093 29.3389 10.5044 28.1672 9.33278C26.9956 8.1611 25.407 7.50199 23.75 7.5ZM12.5 13.75C12.5 12.7554 12.8951 11.8016 13.5983 11.0983C14.3016 10.3951 15.2554 10 16.25 10H23.75C24.7446 10 25.6984 10.3951 26.4017 11.0983C27.1049 11.8016 27.5 12.7554 27.5 13.75V16.25H12.5V13.75ZM6.25 14.375C6.25 14.0042 6.35997 13.6416 6.56599 13.3333C6.77202 13.025 7.06486 12.7846 7.40747 12.6427C7.75008 12.5008 8.12708 12.4637 8.49079 12.536C8.85451 12.6084 9.1886 12.787 9.45083 13.0492C9.71305 13.3114 9.89163 13.6455 9.96397 14.0092C10.0363 14.3729 9.99919 14.7499 9.85727 15.0925C9.71536 15.4351 9.47504 15.728 9.16669 15.934C8.85835 16.14 8.49584 16.25 8.125 16.25C7.62772 16.25 7.15081 16.0525 6.79917 15.7008C6.44754 15.3492 6.25 14.8723 6.25 14.375ZM2.5 21.25V18.75H27.5V21.25H2.5Z" fill="#0D64A6"/>
</g>
<defs>
<clipPath id="clip0_322_2008">
<rect width="30" height="30" fill="white"/>
</clipPath>
</defs>
</svg>
