<svg width="24" height="24" viewBox="0 0 24 24" fill="none" xmlns="http://www.w3.org/2000/svg">
<g clip-path="url(#clip0_533_2)">
<path d="M23.2575 16.2L20.6575 6.829C20.1023 4.82442 18.8925 3.06315 17.2207 1.82549C15.549 0.587837 13.5113 -0.0550717 11.4319 -0.000912064C9.35258 0.0532476 7.3511 0.801363 5.74603 2.12437C4.14096 3.44737 3.02454 5.26924 2.57445 7.3L0.563451 16.35C0.466143 16.7884 0.468517 17.2431 0.570396 17.6805C0.672275 18.1179 0.87106 18.5269 1.15209 18.8772C1.43311 19.2275 1.7892 19.5103 2.19409 19.7046C2.59898 19.899 3.04234 19.9999 3.49145 20H7.09845C7.32797 21.1303 7.94118 22.1465 8.83419 22.8764C9.7272 23.6063 10.8451 24.005 11.9985 24.005C13.1518 24.005 14.2697 23.6063 15.1627 22.8764C16.0557 22.1465 16.6689 21.1303 16.8985 20H20.3685C20.8306 19.9998 21.2864 19.8928 21.7003 19.6875C22.1143 19.4821 22.4752 19.1839 22.755 18.8161C23.0347 18.4482 23.2257 18.0208 23.313 17.567C23.4004 17.1132 23.3807 16.6454 23.2575 16.2ZM11.9985 22C11.3802 21.9974 10.7778 21.8039 10.2738 21.4459C9.76968 21.0879 9.38853 20.5829 9.18245 20H14.8145C14.6084 20.5829 14.2272 21.0879 13.7231 21.4459C13.2191 21.8039 12.6167 21.9974 11.9985 22ZM21.1635 17.605C21.0702 17.7287 20.9492 17.8288 20.8103 17.8974C20.6714 17.966 20.5184 18.0011 20.3635 18H3.49145C3.34171 18 3.19389 17.9663 3.0589 17.9015C2.9239 17.8367 2.80519 17.7425 2.7115 17.6256C2.61782 17.5088 2.55157 17.3725 2.51764 17.2266C2.4837 17.0808 2.48296 16.9292 2.51545 16.783L4.52645 7.733C4.8808 6.13921 5.75776 4.70961 7.01791 3.67145C8.27806 2.6333 9.84907 2.04618 11.4812 2.00342C13.1134 1.96066 14.713 2.46472 16.0258 3.43547C17.3385 4.40622 18.2891 5.78795 18.7265 7.361L21.3265 16.732C21.3689 16.8802 21.3763 17.0362 21.348 17.1877C21.3197 17.3393 21.2565 17.4821 21.1635 17.605Z" fill="black"/>
</g>
<defs>
<clipPath id="clip0_533_2">
<rect width="24" height="24" fill="white"/>
</clipPath>
</defs>
</svg>
