<svg width="18" height="18" viewBox="0 0 18 18" fill="none" xmlns="http://www.w3.org/2000/svg">
<g clip-path="url(#clip0_173_408)">
<path d="M7.125 9H6.375V8.53575C6.375 7.782 6.86775 6.89775 7.473 6.56475C8.0445 6.24975 8.34 5.62575 8.22525 4.9755C8.12025 4.374 7.62675 3.8805 7.0245 3.774C6.57225 3.696 6.13125 3.81 5.7855 4.101C5.445 4.38675 5.25 4.80525 5.25 5.25H4.5C4.5 4.58325 4.79325 3.95475 5.30325 3.5265C5.81325 3.09825 6.48825 2.9175 7.15425 3.036C8.061 3.195 8.805 3.939 8.964 4.84575C9.132 5.8005 8.67825 6.756 7.8345 7.22175C7.4625 7.4265 7.12425 8.052 7.12425 8.53575V9H7.125ZM7.5 10.5C7.5 10.086 7.164 9.75 6.75 9.75C6.336 9.75 6 10.086 6 10.5C6 10.914 6.336 11.25 6.75 11.25C7.164 11.25 7.5 10.914 7.5 10.5ZM14.997 6.81C14.9948 7.0965 14.9783 7.37925 14.9475 7.65825C16.3365 8.604 17.25 10.197 17.25 12V17.25H12C10.197 17.25 8.604 16.3358 7.65825 14.9475C7.37925 14.9783 7.0965 14.9955 6.81 14.997C7.84875 16.7887 9.78375 18 12 18H18V12C18 9.78375 16.7887 7.84875 14.997 6.81ZM13.5 6.75C13.5 3.02775 10.4722 0 6.75 0C3.02775 0 0 3.02775 0 6.75V13.5H6.75C10.4722 13.5 13.5 10.4722 13.5 6.75ZM0.75 6.75C0.75 3.44175 3.44175 0.75 6.75 0.75C10.0582 0.75 12.75 3.44175 12.75 6.75C12.75 10.0582 10.0582 12.75 6.75 12.75H0.75V6.75Z" fill="black"/>
</g>
<defs>
<clipPath id="clip0_173_408">
<rect width="18" height="18" fill="white"/>
</clipPath>
</defs>
</svg>
