<svg width="18" height="18" viewBox="0 0 18 18" fill="none" xmlns="http://www.w3.org/2000/svg">
<path d="M3.75051 16.5C4.14834 16.5 4.52987 16.342 4.81117 16.0607C5.09248 15.7794 5.25051 15.3978 5.25051 15V10.5C5.25051 10.1022 5.09248 9.72064 4.81117 9.43934C4.52987 9.15804 4.14834 9 3.75051 9V8.25C3.75051 6.85761 4.30364 5.52226 5.2882 4.53769C6.27277 3.55312 7.60813 3 9.00051 3C10.3929 3 11.7283 3.55312 12.7128 4.53769C13.6974 5.52226 14.2505 6.85761 14.2505 8.25V9C13.8527 9 13.4712 9.15804 13.1899 9.43934C12.9085 9.72064 12.7505 10.1022 12.7505 10.5V15H10.5005C10.3016 15 10.1108 15.079 9.97018 15.2197C9.82953 15.3603 9.75051 15.5511 9.75051 15.75C9.75051 15.9489 9.82953 16.1397 9.97018 16.2803C10.1108 16.421 10.3016 16.5 10.5005 16.5H14.2505C15.11 16.4974 15.9426 16.1997 16.6088 15.6566C17.275 15.1135 17.7344 14.358 17.9101 13.5167C18.0858 12.6753 17.9672 11.7991 17.574 11.0348C17.1809 10.2705 16.5371 9.66438 15.7505 9.318V8.25C15.7505 6.45979 15.0394 4.7429 13.7735 3.47703C12.5076 2.21116 10.7907 1.5 9.00051 1.5C7.2103 1.5 5.49341 2.21116 4.22754 3.47703C2.96167 4.7429 2.25051 6.45979 2.25051 8.25V9.318C1.46388 9.66438 0.820113 10.2705 0.426978 11.0348C0.0338442 11.7991 -0.084792 12.6753 0.0909304 13.5167C0.266653 14.358 0.726068 15.1135 1.39226 15.6566C2.05846 16.1997 2.891 16.4974 3.75051 16.5Z" fill="black"/>
</svg>
