<svg width="45" height="45" viewBox="0 0 45 45" fill="none" xmlns="http://www.w3.org/2000/svg">
<g clip-path="url(#clip0_339_2244)">
<path d="M34.6875 -9.53674e-07H10.3125C7.72875 -9.53674e-07 5.625 2.10375 5.625 4.6875V45H18.75V31.875H26.25V45H39.375V4.6875C39.375 2.10375 37.2712 -9.53674e-07 34.6875 -9.53674e-07ZM37.5 43.125H28.125V31.875H31.875V30H13.125V31.875H16.875V43.125H7.5V4.6875C7.5 3.13687 8.76187 1.875 10.3125 1.875H34.6875C36.2381 1.875 37.5 3.13687 37.5 4.6875V43.125ZM13.125 22.5H16.875V24.375H13.125V22.5ZM28.125 22.5H31.875V24.375H28.125V22.5ZM13.125 7.5H16.875V9.375H13.125V7.5ZM28.125 7.5H31.875V9.375H28.125V7.5ZM13.125 15H16.875V16.875H13.125V15ZM28.125 15H31.875V16.875H28.125V15ZM20.625 22.5H24.375V24.375H20.625V22.5ZM20.625 7.5H24.375V9.375H20.625V7.5ZM20.625 15H24.375V16.875H20.625V15Z" fill="white"/>
</g>
<defs>
<clipPath id="clip0_339_2244">
<rect width="45" height="45" fill="white"/>
</clipPath>
</defs>
</svg>
