<svg width="30" height="30" viewBox="0 0 30 30" fill="none" xmlns="http://www.w3.org/2000/svg">
<g clip-path="url(#clip0_339_2324)">
<path d="M22.5 -7.62939e-06H7.5C5.4325 -7.62939e-06 3.75 1.68249 3.75 3.74999V30H12.5V22.5H8.75V20H21.25V22.5H17.5V30H26.25V3.74999C26.25 1.68249 24.5675 -7.62939e-06 22.5 -7.62939e-06ZM11.25 17.5H8.75V15H11.25V17.5ZM11.25 12.5H8.75V9.99999H11.25V12.5ZM11.25 7.49999H8.75V4.99999H11.25V7.49999ZM16.25 17.5H13.75V15H16.25V17.5ZM16.25 12.5H13.75V9.99999H16.25V12.5ZM16.25 7.49999H13.75V4.99999H16.25V7.49999ZM21.25 17.5H18.75V15H21.25V17.5ZM21.25 12.5H18.75V9.99999H21.25V12.5ZM21.25 7.49999H18.75V4.99999H21.25V7.49999Z" fill="#004579"/>
</g>
<defs>
<clipPath id="clip0_339_2324">
<rect width="30" height="30" fill="white"/>
</clipPath>
</defs>
</svg>
