<svg width="20" height="20" viewBox="0 0 20 20" fill="none" xmlns="http://www.w3.org/2000/svg">
<g clip-path="url(#clip0_339_2335)">
<path d="M9.96402 20.0067L9.38312 19.5088C8.5823 18.8382 1.58984 12.7993 1.58984 8.38192C1.58984 3.75699 5.3391 0.00773621 9.96402 0.00773621C14.5889 0.00773621 18.3382 3.75699 18.3382 8.38192C18.3382 12.7993 11.3457 18.8382 10.5482 19.5121L9.96402 20.0067ZM9.96402 1.81848C6.34086 1.82258 3.40473 4.75871 3.40063 8.38188C3.40063 11.157 7.70266 15.5901 9.96402 17.6191C12.2254 15.5893 16.5274 11.1536 16.5274 8.38188C16.5233 4.75871 13.5872 1.82262 9.96402 1.81848Z" fill="black" fill-opacity="0.5"/>
<path d="M9.96398 11.7014C8.1307 11.7014 6.64453 10.2152 6.64453 8.38192C6.64453 6.54864 8.1307 5.06247 9.96398 5.06247C11.7973 5.06247 13.2834 6.54864 13.2834 8.38192C13.2834 10.2152 11.7973 11.7014 9.96398 11.7014ZM9.96398 6.72216C9.04734 6.72216 8.30426 7.46524 8.30426 8.38188C8.30426 9.29852 9.04734 10.0416 9.96398 10.0416C10.8806 10.0416 11.6237 9.29852 11.6237 8.38188C11.6237 7.46524 10.8807 6.72216 9.96398 6.72216Z" fill="black" fill-opacity="0.5"/>
</g>
<defs>
<clipPath id="clip0_339_2335">
<rect width="20" height="20" fill="white"/>
</clipPath>
</defs>
</svg>
