<svg width="30" height="30" viewBox="0 0 30 30" fill="none" xmlns="http://www.w3.org/2000/svg">
<g clip-path="url(#clip0_753_6)">
<path d="M27.7134 2.27505L26.4009 1.13755C24.8884 -0.374951 22.4384 -0.374951 20.9259 1.13755C20.8884 1.17505 18.5759 4.18755 18.5759 4.18755C17.1509 5.68755 17.1509 8.05005 18.5759 9.53755L20.0259 11.3626C18.2009 15.5001 15.3634 18.3501 11.3634 20.0501L9.53841 18.5876C8.05091 17.1501 5.6759 17.1501 4.1884 18.5876C4.1884 18.5876 1.1759 20.9001 1.1384 20.9376C-0.374095 22.4501 -0.374095 24.9001 1.0759 26.3501L2.3259 27.7876C3.7634 29.2251 5.7009 30.0126 7.8009 30.0126C17.3509 30.0126 30.0009 17.3501 30.0009 7.81255C30.0009 5.72505 29.2134 3.77505 27.7134 2.28755V2.27505ZM7.8009 27.5001C6.3759 27.5001 5.0634 26.9751 4.1634 26.0626L2.9134 24.6251C2.4009 24.1126 2.3759 23.2751 2.8634 22.7376C2.8634 22.7376 5.85091 20.4375 5.88841 20.4C6.40091 19.8875 7.30091 19.8875 7.82591 20.4C7.86341 20.4375 10.3759 22.45 10.3759 22.45C10.7259 22.725 11.1884 22.8001 11.6009 22.6376C16.7759 20.6626 20.4884 16.9626 22.6259 11.6251C22.7884 11.2126 22.7259 10.7376 22.4384 10.3751C22.4384 10.3751 20.4259 7.85005 20.4009 7.82505C19.8634 7.28755 19.8634 6.42505 20.4009 5.88755C20.4384 5.85005 22.7384 2.86255 22.7384 2.86255C23.2759 2.37505 24.1134 2.38755 24.6884 2.96255L26.0009 4.10005C26.9634 5.06255 27.5009 6.37505 27.5009 7.80005C27.5009 16.5001 15.2884 27.5001 7.8009 27.5001Z" fill="white"/>
</g>
<defs>
<clipPath id="clip0_753_6">
<rect width="30" height="30" fill="white"/>
</clipPath>
</defs>
</svg>
