<svg width="20" height="20" viewBox="0 0 20 20" fill="none" xmlns="http://www.w3.org/2000/svg">
<g clip-path="url(#clip0_339_2333)">
<path d="M19.2933 12.9117L17.5642 14.1417C16.7533 14.7183 15.7967 15.0125 14.835 15.0125C14.145 15.0125 13.4517 14.8608 12.8075 14.5542L1.1975 8.99001C0.163334 8.49584 -0.286667 7.24834 0.195 6.20834C0.6775 5.16584 1.91917 4.7125 2.96083 5.1925L2.96667 5.19584L6.30167 6.80584C6.31 6.79917 6.31833 6.79334 6.3275 6.78751L12.3458 2.91C12.9575 2.455 13.7692 2.37334 14.4642 2.69334L15.115 2.99917C15.4967 3.17834 15.76 3.535 15.82 3.9525C15.88 4.37084 15.7275 4.78667 15.4133 5.06501L10.9583 9.05251L15.175 11.0875L17.8733 10.0967C18.5217 9.86167 19.2492 10.0683 19.6817 10.6208C19.9375 10.9483 20.0442 11.3617 19.9825 11.785C19.9167 12.2367 19.6667 12.6467 19.2933 12.9117ZM14.8592 4.44334C14.9658 4.34834 15.0158 4.21334 14.9958 4.07167C14.9758 3.93 14.89 3.81417 14.7608 3.75417L14.1125 3.45C13.6975 3.25584 13.21 3.30584 12.8208 3.595L7.18 7.23L10.1475 8.66251L14.8592 4.44334ZM19.0258 11.1333C18.8742 10.9408 18.6492 10.8333 18.4183 10.8333C18.3317 10.8333 18.245 10.8492 18.1608 10.88L15.2967 11.9317C15.1908 11.9708 15.0733 11.9642 14.9717 11.915L2.6075 5.94834C1.98417 5.66167 1.24 5.93334 0.950001 6.55834C0.659166 7.18667 0.931667 7.94 1.55667 8.23834L13.1667 13.8025C14.435 14.4067 15.935 14.2775 17.0808 13.4633L18.81 12.2333C18.9983 12.1 19.1242 11.8925 19.1575 11.665C19.1858 11.4692 19.1392 11.28 19.0242 11.1333H19.0258ZM0 19.5833C0 19.8133 0.186666 20 0.416668 20H19.5833C19.8133 20 20 19.8133 20 19.5833C20 19.3533 19.8133 19.1667 19.5833 19.1667H0.416668C0.186666 19.1667 0 19.3533 0 19.5833Z" fill="black" fill-opacity="0.5"/>
</g>
<defs>
<clipPath id="clip0_339_2333">
<rect width="20" height="20" fill="white" transform="matrix(-1 0 0 1 20 0)"/>
</clipPath>
</defs>
</svg>
