<svg width="43" height="43" viewBox="0 0 43 43" fill="none" xmlns="http://www.w3.org/2000/svg">
<g clip-path="url(#clip0_339_2322)">
<path d="M30.7693 32.8699L28.2838 35.3553L23.0141 24.7152L18.5611 29.1682L19.0632 31.5882C19.1883 32.1957 19.1604 32.8247 18.982 33.4187C18.8037 34.0127 18.4804 34.5531 18.0414 34.9912L15.9475 37.0851L12.5887 29.8373L5.32674 26.4926L7.42419 24.3952C7.86143 23.9568 8.40069 23.6338 8.99357 23.4554C9.58644 23.2769 10.2144 23.2484 10.821 23.3725L13.2578 23.8649L17.7135 19.4092L7.07064 14.1421L9.55612 11.6567C10.0324 11.1802 10.6283 10.8408 11.281 10.6743C11.9338 10.5077 12.6194 10.52 13.2658 10.71L23.5003 13.6224L26.4215 10.7012C27.0527 10.0539 27.8914 9.64906 28.7908 9.55745C29.6903 9.46584 30.5933 9.69328 31.3421 10.2C31.7867 10.5161 32.1571 10.9254 32.4273 11.3993C32.6975 11.8733 32.861 12.4005 32.9064 12.9441C32.9519 13.4878 32.8781 14.0348 32.6904 14.5471C32.5026 15.0593 32.2054 15.5244 31.8194 15.9099L28.8036 18.9257L31.7186 29.1699C31.9064 29.8151 31.9174 30.4989 31.7504 31.1498C31.5834 31.8007 31.2445 32.3948 30.7693 32.8699Z" fill="#004579"/>
</g>
<defs>
<clipPath id="clip0_339_2322">
<rect width="30" height="30" fill="white" transform="translate(0 21.2132) rotate(-45)"/>
</clipPath>
</defs>
</svg>
