<svg width="45" height="45" viewBox="0 0 45 45" fill="none" xmlns="http://www.w3.org/2000/svg">
<g clip-path="url(#clip0_339_2237)">
<path d="M20.5641 45H13.9116L19.6097 28.125H11.3222L9.01219 31.6481C8.14031 32.9663 6.67969 33.75 5.10281 33.75H0.192188L3.93656 22.5L0.164062 11.25H5.07844C6.65531 11.25 8.11594 12.0337 8.98594 13.35L11.3203 16.875H19.6097L13.9116 -9.53674e-07H20.5641C22.2797 -9.53674e-07 23.8566 0.937499 24.6778 2.44312L32.7159 16.875H39.1247C41.9953 16.875 44.4891 18.8906 44.9241 21.5625C45.1941 23.2144 44.7328 24.8831 43.6622 26.1431C42.5916 27.4031 41.0297 28.125 39.3759 28.125H32.7159L24.6741 42.5644C23.8547 44.0644 22.2797 45 20.5641 45ZM16.5234 43.125H20.5641C21.5934 43.125 22.5403 42.5625 23.0334 41.6588L31.6134 26.25H39.3759C40.4784 26.25 41.5209 25.7681 42.2334 24.9281C42.9591 24.075 43.2572 22.9875 43.0734 21.8625C42.7847 20.0887 41.0859 18.75 39.1247 18.75H31.6134L23.0372 3.34875C22.5384 2.4375 21.5916 1.875 20.5641 1.875H16.5234L22.2216 18.75H10.3134L7.42219 14.3831C6.90094 13.5956 6.02531 13.125 5.07844 13.125H2.77219L5.91469 22.5L2.79281 31.875H5.10281C6.04781 31.875 6.92531 31.4044 7.44656 30.6169L10.3116 26.25H22.2216L16.5234 43.125Z" fill="#004579"/>
</g>
<defs>
<clipPath id="clip0_339_2237">
<rect width="45" height="45" fill="white"/>
</clipPath>
</defs>
</svg>
