<svg width="45" height="30" viewBox="0 0 45 30" fill="none" xmlns="http://www.w3.org/2000/svg">
<path fill-rule="evenodd" clip-rule="evenodd" d="M3.75 0H18.75C20.8175 0 22.5 1.6825 22.5 3.75V15.287C22.667 15.1102 22.9038 15 23.1667 15H25.0064C31.6119 15 39.0993 17.3467 42.9758 18.7446C43.7541 19.0242 44.2537 19.7392 44.25 20.5651C44.2463 21.391 43.7403 22.1005 42.9584 22.3737C39.0855 23.7276 31.6037 26 25.0073 26H23.1667C22.9038 26 22.667 25.8898 22.5 25.713V30H13.75V22.5H17.5V20H5V22.5H8.75V30H0V3.75C0 1.6825 1.6825 0 3.75 0ZM5 17.5H7.5V15H5V17.5ZM5 12.5H7.5V10H5V12.5ZM5 7.5H7.5V5H5V7.5ZM10 17.5H12.5V15H10V17.5ZM10 12.5H12.5V10H10V12.5ZM10 7.5H12.5V5H10V7.5ZM15 17.5H17.5V15H15V17.5ZM15 12.5H17.5V10H15V12.5ZM15 7.5H17.5V5H15V7.5ZM29.5833 21.4167H34.1667C34.6736 21.4167 35.0833 21.0069 35.0833 20.5C35.0833 19.9931 34.6736 19.5833 34.1667 19.5833H29.5833C29.0764 19.5833 28.6667 19.9931 28.6667 20.5C28.6667 21.0069 29.0764 21.4167 29.5833 21.4167ZM30.775 12.8C30.5669 13.0768 30.3359 13.3198 30.0976 13.5462C33.4957 14.0173 36.8232 14.8579 39.5759 15.6903L41.9244 6.88292C42.1096 6.18901 41.9648 5.46484 41.5275 4.89559C41.0903 4.32634 40.4284 4.00001 39.7107 4.00001H39.4375C38.145 4.00001 36.9121 4.61692 36.1375 5.65092L30.775 12.8Z" fill="#004579"/>
</svg>
