<svg width="56" height="47" viewBox="0 0 56 47" fill="none" xmlns="http://www.w3.org/2000/svg">
<path fill-rule="evenodd" clip-rule="evenodd" d="M4.89583 0H30.3542C33.0527 0 35.25 2.19725 35.25 4.89583V29.1532H38.2617C39.1275 29.1532 40.8346 28.596 41.9873 27.0591L48.3167 18.7522C49.0005 17.8535 50.0848 17.3173 51.2138 17.3173H51.9112C52.4975 17.3173 53.0329 17.5886 53.3798 18.0611C53.7267 18.5337 53.8241 19.1264 53.6474 19.6854L49.9692 31.3392C51.7765 31.8654 53.3652 32.4026 54.5889 32.8442C55.1779 33.0572 55.5567 33.5971 55.5539 34.2217C55.5512 34.8472 55.167 35.3834 54.5761 35.591C50.7577 36.9266 43.3821 39.1673 36.8969 39.1673H35.25V47H21.5417V33.2917H13.7083V47H0V4.89583C0 2.19725 2.19725 0 4.89583 0ZM35.25 38.2568H36.8969C43.2473 38.2568 50.5109 36.048 54.2757 34.7324C54.6162 34.6141 54.6435 34.3091 54.6435 34.2189C54.6444 34.1288 54.6198 33.8238 54.2802 33.7018C50.5146 32.3434 43.2501 30.0636 36.8969 30.0636H35.25V38.2568ZM23.5 45.0417H33.2917V4.89583C33.2917 3.27629 31.9737 1.95833 30.3542 1.95833H4.89583C3.27629 1.95833 1.95833 3.27629 1.95833 4.89583V45.0417H11.75V33.2917H7.83333V31.3333H27.4167V33.2917H23.5V45.0417ZM11.75 23.5H7.83333V25.4583H11.75V23.5ZM27.4167 23.5H23.5V25.4583H27.4167V23.5ZM11.75 7.83333H7.83333V9.79167H11.75V7.83333ZM27.4167 7.83333H23.5V9.79167H27.4167V7.83333ZM11.75 15.6667H7.83333V17.625H11.75V15.6667ZM27.4167 15.6667H23.5V17.625H27.4167V15.6667ZM19.5833 23.5H15.6667V25.4583H19.5833V23.5ZM19.5833 7.83333H15.6667V9.79167H19.5833V7.83333ZM19.5833 15.6667H15.6667V17.625H19.5833V15.6667ZM49.0415 19.303L42.7138 27.6072L42.7147 27.6063C42.1266 28.3911 41.3946 28.9766 40.6535 29.379C43.5842 29.7131 46.5241 30.3759 49.0952 31.0897L52.7807 19.4113C52.869 19.1309 52.8198 18.835 52.6469 18.5983C52.473 18.3625 52.2053 18.2268 51.9121 18.2268H51.2147C50.3671 18.2268 49.555 18.6293 49.0415 19.303ZM40.0762 34.1598C40.0762 34.4111 40.2802 34.615 40.5315 34.615H45.0837C45.335 34.615 45.5389 34.4111 45.5389 34.1598C45.5389 33.9085 45.335 33.7045 45.0837 33.7045H40.5315C40.2802 33.7045 40.0762 33.9085 40.0762 34.1598Z" fill="white"/>
</svg>
